<svg width="41" height="42" viewBox="0 0 41 42" fill="none" xmlns="http://www.w3.org/2000/svg">
<rect width="38.9928" height="39.7607" rx="19.4964" transform="matrix(0.999526 0.0307845 -0.031145 0.999515 2.01733 0.455078)" fill="white"/>
<path d="M28.9092 13.8161L25.4951 29.3145C25.4951 29.3145 25.0517 30.3827 23.9423 29.8297L17.3562 24.1514L17.3254 24.1343C18.265 23.2971 25.5514 16.796 25.8702 16.501C26.3638 16.0441 26.0752 15.7541 25.5082 16.0933L14.8361 22.7813L10.8477 21.2242C10.8477 21.2242 10.2204 20.9663 10.1755 20.4461C10.1299 19.925 10.9171 19.6681 10.9171 19.6681L27.5707 13.3639C27.5707 13.3639 28.9415 12.7785 28.9092 13.8161V13.8161Z" fill="black"/>
</svg>
