<svg width="32" height="30" viewBox="0 0 32 30" fill="none" xmlns="http://www.w3.org/2000/svg">
<path d="M30.7143 15C30.7143 22.6804 24.1156 29 15.8571 29C7.59868 29 1 22.6804 1 15C1 7.31964 7.59868 1 15.8571 1C24.1156 1 30.7143 7.31964 30.7143 15Z" stroke="white" stroke-width="2"/>
<path d="M25.9179 13.5109C26.5037 14.0967 26.5037 15.0464 25.9179 15.6322L16.372 25.1781C15.7862 25.7639 14.8364 25.7639 14.2506 25.1781C13.6649 24.5923 13.6649 23.6426 14.2506 23.0568L22.7359 14.5715L14.2506 6.08625C13.6649 5.50047 13.6649 4.55072 14.2506 3.96493C14.8364 3.37914 15.7862 3.37914 16.372 3.96493L25.9179 13.5109ZM8.57153 13.0715L24.8572 13.0715V16.0715L8.57153 16.0715V13.0715Z" fill="white"/>
</svg>
