<svg width="32" height="30" viewBox="0 0 32 30" fill="none" xmlns="http://www.w3.org/2000/svg">
<path d="M30.7143 15C30.7143 22.6804 24.1156 29 15.8571 29C7.59868 29 1 22.6804 1 15C1 7.31964 7.59868 1 15.8571 1C24.1156 1 30.7143 7.31964 30.7143 15Z" stroke="white" stroke-width="2"/>
<path d="M7.51081 13.5109C6.92502 14.0967 6.92502 15.0464 7.51081 15.6322L17.0567 25.1781C17.6425 25.7639 18.5923 25.7639 19.1781 25.1781C19.7639 24.5923 19.7639 23.6426 19.1781 23.0568L10.6928 14.5715L19.1781 6.08625C19.7639 5.50047 19.7639 4.55072 19.1781 3.96493C18.5923 3.37914 17.6425 3.37914 17.0567 3.96493L7.51081 13.5109ZM24.8572 13.0715L8.57146 13.0715V16.0715L24.8572 16.0715V13.0715Z" fill="white"/>
</svg>
